<svg width="88" height="91" viewBox="0 0 88 91" fill="none" xmlns="http://www.w3.org/2000/svg">
<path d="M83.9428 72.2797C90.4047 41.7956 85.1439 21.6896 81.7791 15.5256L81.7668 15.5031L81.7569 15.4795C80.3862 12.2119 77.2274 7.69298 72.2307 4.80961C67.5343 2.09952 61.1809 0.813856 53.0815 3.42179L53.0864 3.43633C23.5642 13.41 8.94519 28.1821 5.35617 34.2182L5.34306 34.2402L5.32777 34.2608C3.21474 37.1053 0.936141 42.1259 1.00137 47.8945C1.06279 53.3263 3.20178 59.4606 9.60024 65.1092L9.60305 65.1059C33.221 84.9036 53.3343 89.6211 60.3353 89.5328L60.3608 89.5325L60.3862 89.5348C63.9007 89.8497 69.364 89.179 74.2708 86.1388C78.44 83.5555 82.2332 79.2466 84.0859 72.31L83.9428 72.2797Z" fill="white"/>
</svg>
